<mxfile host="app.diagrams.net" agent="Mozilla/5.0 (Windows NT 10.0; Win64; x64) AppleWebKit/537.36 (KHTML, like Gecko) Chrome/131.0.0.0 Safari/537.36" version="24.8.9">
  <diagram name="PÃ¡gina-1" id="4tEYT7AZ6MiVWFtFd2NR">
    <mxGraphModel grid="0" page="0" gridSize="10" guides="0" tooltips="1" connect="1" arrows="1" fold="1" pageScale="0.75" pageWidth="827" pageHeight="1169" math="0" shadow="0">
      <root>
        <mxCell id="0" />
        <mxCell id="1" parent="0" />
        <mxCell id="n_Z7QNfw0kOYRbPjjem--23" value="" style="rounded=0;whiteSpace=wrap;html=1;" vertex="1" parent="1">
          <mxGeometry x="-612.75" y="-36.75" width="1142.75" height="740" as="geometry" />
        </mxCell>
        <mxCell id="DsAFyzbHcJ4Hr4WfZOtH-16" style="edgeStyle=orthogonalEdgeStyle;rounded=0;orthogonalLoop=1;jettySize=auto;html=1;exitX=0.5;exitY=1;exitDx=0;exitDy=0;fontFamily=Helvetica;fontSize=12;fontColor=default;strokeColor=default;endArrow=none;endFill=0;shadow=1;strokeWidth=1;" edge="1" parent="1">
          <mxGeometry relative="1" as="geometry">
            <mxPoint x="-20" y="203" as="sourcePoint" />
            <mxPoint x="-201.01666666666642" y="414.5" as="targetPoint" />
            <Array as="points">
              <mxPoint x="-20" y="316" />
              <mxPoint x="-201" y="316" />
            </Array>
          </mxGeometry>
        </mxCell>
        <mxCell id="S9Cv3rVsNq0ONA8z7l8G-9" value="" style="rounded=0;whiteSpace=wrap;html=1;dashed=1;strokeWidth=2;strokeColor=#575757;" vertex="1" parent="1">
          <mxGeometry x="-540" y="14" width="1040" height="190" as="geometry" />
        </mxCell>
        <mxCell id="S9Cv3rVsNq0ONA8z7l8G-179" value="&lt;h1 style=&quot;&quot;&gt;&lt;font style=&quot;font-size: 24px;&quot;&gt;&lt;i&gt;Security Test Lab - IaC&lt;/i&gt;&lt;/font&gt;&lt;/h1&gt;" style="text;strokeColor=none;fillColor=none;html=1;fontSize=40;fontStyle=1;verticalAlign=middle;align=left;fontFamily=Helvetica;fontColor=default;" vertex="1" parent="1">
          <mxGeometry x="-612.75" y="-91" width="440" height="30" as="geometry" />
        </mxCell>
        <mxCell id="S9Cv3rVsNq0ONA8z7l8G-22" value="&lt;p style=&quot;line-height: 100%;&quot;&gt;&lt;font style=&quot;font-size: 18px;&quot;&gt;network_ZTNA&lt;/font&gt;&lt;/p&gt;" style="text;strokeColor=none;fillColor=none;html=1;fontSize=22;fontStyle=1;verticalAlign=middle;align=left;strokeWidth=0;rotation=0;flipH=0;flipV=1;" vertex="1" parent="1">
          <mxGeometry x="-540" y="-22" width="180" height="40" as="geometry" />
        </mxCell>
        <mxCell id="n_Z7QNfw0kOYRbPjjem--1" value="" style="group" connectable="0" vertex="1" parent="1">
          <mxGeometry x="-560" y="289" width="70" height="88.5" as="geometry" />
        </mxCell>
        <mxCell id="S9Cv3rVsNq0ONA8z7l8G-20" value="" style="pointerEvents=1;shadow=0;dashed=0;html=1;strokeColor=none;fillColor=#666666;labelPosition=center;verticalLabelPosition=bottom;verticalAlign=top;outlineConnect=0;align=center;shape=mxgraph.office.concepts.firewall;" vertex="1" parent="n_Z7QNfw0kOYRbPjjem--1">
          <mxGeometry x="5.833333333333334" width="58.333333333333336" height="58.5" as="geometry" />
        </mxCell>
        <mxCell id="S9Cv3rVsNq0ONA8z7l8G-21" value="&lt;font style=&quot;font-size: 19px;&quot;&gt;Firewall&lt;/font&gt;" style="text;html=1;strokeColor=none;fillColor=none;align=center;verticalAlign=middle;whiteSpace=wrap;rounded=0;fontStyle=1" vertex="1" parent="n_Z7QNfw0kOYRbPjjem--1">
          <mxGeometry y="58.5" width="70" height="30" as="geometry" />
        </mxCell>
        <mxCell id="n_Z7QNfw0kOYRbPjjem--2" value="" style="swimlane;startSize=0;points=[[0,0,0,0,0],[0,0.25,0,0,0],[0,0.5,0,0,0],[0,0.75,0,0,0],[0,1,0,0,0],[0.25,0,0,0,0],[0.25,1,0,0,0],[0.5,0,0,0,0],[0.5,1,0,0,0],[0.75,0,0,0,0],[0.75,1,0,0,0],[1,0,0,0,0],[1,0.25,0,0,0],[1,0.5,0,0,0],[1,0.75,0,0,0],[1,1,0,0,0]];" vertex="1" parent="1">
          <mxGeometry x="-518" y="49" width="160" height="144" as="geometry">
            <mxRectangle x="-358" y="240" width="50" height="40" as="alternateBounds" />
          </mxGeometry>
        </mxCell>
        <mxCell id="n_Z7QNfw0kOYRbPjjem--3" value="&lt;font style=&quot;font-size: 24px;&quot;&gt;&lt;b style=&quot;&quot;&gt;GLPI&lt;/b&gt;&lt;/font&gt;" style="text;html=1;align=center;verticalAlign=middle;resizable=0;points=[];autosize=1;strokeColor=none;fillColor=none;" vertex="1" parent="n_Z7QNfw0kOYRbPjjem--2">
          <mxGeometry x="40" y="40" width="80" height="40" as="geometry" />
        </mxCell>
        <mxCell id="ann6PepIxFPNm6nObkSO-7" value="" style="sketch=0;outlineConnect=0;fontColor=#232F3E;gradientColor=none;fillColor=#585450;strokeColor=none;dashed=0;verticalLabelPosition=bottom;verticalAlign=top;align=center;html=1;fontSize=12;fontStyle=0;aspect=fixed;pointerEvents=1;shape=mxgraph.aws4.container_1;" vertex="1" parent="n_Z7QNfw0kOYRbPjjem--2">
          <mxGeometry x="56" y="80" width="48" height="31" as="geometry" />
        </mxCell>
        <mxCell id="ann6PepIxFPNm6nObkSO-4" value="" style="verticalLabelPosition=bottom;sketch=0;html=1;fillColor=#FF3333;strokeColor=none;verticalAlign=top;pointerEvents=1;align=center;shape=mxgraph.cisco_safe.security_icons.icon36;" vertex="1" parent="n_Z7QNfw0kOYRbPjjem--2">
          <mxGeometry x="106" y="90" width="50" height="49" as="geometry" />
        </mxCell>
        <mxCell id="n_Z7QNfw0kOYRbPjjem--4" value="" style="swimlane;startSize=0;" vertex="1" parent="1">
          <mxGeometry x="-350" y="49" width="160" height="120" as="geometry">
            <mxRectangle x="-770" y="140" width="50" height="40" as="alternateBounds" />
          </mxGeometry>
        </mxCell>
        <mxCell id="n_Z7QNfw0kOYRbPjjem--5" value="&lt;font style=&quot;font-size: 24px;&quot;&gt;&lt;b style=&quot;&quot;&gt;MariaDB&lt;/b&gt;&lt;/font&gt;" style="text;html=1;align=center;verticalAlign=middle;resizable=0;points=[];autosize=1;strokeColor=none;fillColor=none;" vertex="1" parent="n_Z7QNfw0kOYRbPjjem--4">
          <mxGeometry x="20" y="40" width="120" height="40" as="geometry" />
        </mxCell>
        <mxCell id="n_Z7QNfw0kOYRbPjjem--6" value="" style="swimlane;startSize=0;" vertex="1" parent="1">
          <mxGeometry x="-182" y="49" width="160" height="120" as="geometry">
            <mxRectangle x="-770" y="140" width="50" height="40" as="alternateBounds" />
          </mxGeometry>
        </mxCell>
        <mxCell id="n_Z7QNfw0kOYRbPjjem--7" value="&lt;span style=&quot;font-size: 24px;&quot;&gt;&lt;b&gt;Nginx&lt;/b&gt;&lt;/span&gt;" style="text;html=1;align=center;verticalAlign=middle;resizable=0;points=[];autosize=1;strokeColor=none;fillColor=none;" vertex="1" parent="n_Z7QNfw0kOYRbPjjem--6">
          <mxGeometry x="35" y="40" width="90" height="40" as="geometry" />
        </mxCell>
        <mxCell id="ann6PepIxFPNm6nObkSO-9" value="" style="sketch=0;outlineConnect=0;fontColor=#232F3E;gradientColor=none;fillColor=#585450;strokeColor=none;dashed=0;verticalLabelPosition=bottom;verticalAlign=top;align=center;html=1;fontSize=12;fontStyle=0;aspect=fixed;pointerEvents=1;shape=mxgraph.aws4.container_1;" vertex="1" parent="n_Z7QNfw0kOYRbPjjem--6">
          <mxGeometry x="56" y="81" width="48" height="31" as="geometry" />
        </mxCell>
        <mxCell id="n_Z7QNfw0kOYRbPjjem--8" value="" style="swimlane;startSize=0;" vertex="1" parent="1">
          <mxGeometry x="-14" y="49" width="160" height="120" as="geometry">
            <mxRectangle x="-770" y="140" width="50" height="40" as="alternateBounds" />
          </mxGeometry>
        </mxCell>
        <mxCell id="n_Z7QNfw0kOYRbPjjem--9" value="&lt;span style=&quot;font-size: 24px;&quot;&gt;&lt;b&gt;NAS&lt;/b&gt;&lt;/span&gt;" style="text;html=1;align=center;verticalAlign=middle;resizable=0;points=[];autosize=1;strokeColor=none;fillColor=none;" vertex="1" parent="n_Z7QNfw0kOYRbPjjem--8">
          <mxGeometry x="45" y="40" width="70" height="40" as="geometry" />
        </mxCell>
        <mxCell id="DsAFyzbHcJ4Hr4WfZOtH-21" style="edgeStyle=orthogonalEdgeStyle;rounded=0;orthogonalLoop=1;jettySize=auto;html=1;fontFamily=Helvetica;fontSize=12;fontColor=default;endArrow=none;endFill=0;flowAnimation=0;shadow=1;strokeWidth=1;" edge="1" parent="1" source="n_Z7QNfw0kOYRbPjjem--10">
          <mxGeometry relative="1" as="geometry">
            <mxPoint x="220" y="320" as="targetPoint" />
          </mxGeometry>
        </mxCell>
        <mxCell id="n_Z7QNfw0kOYRbPjjem--10" value="" style="swimlane;startSize=0;" vertex="1" parent="1">
          <mxGeometry x="154" y="49" width="160" height="120" as="geometry">
            <mxRectangle x="-770" y="140" width="50" height="40" as="alternateBounds" />
          </mxGeometry>
        </mxCell>
        <mxCell id="n_Z7QNfw0kOYRbPjjem--11" value="&lt;b style=&quot;&quot;&gt;&lt;font style=&quot;font-size: 22px;&quot;&gt;SafeCredential&lt;/font&gt;&lt;/b&gt;" style="text;html=1;align=center;verticalAlign=middle;resizable=0;points=[];autosize=1;strokeColor=none;fillColor=none;" vertex="1" parent="n_Z7QNfw0kOYRbPjjem--10">
          <mxGeometry x="-10" y="40" width="180" height="40" as="geometry" />
        </mxCell>
        <mxCell id="ann6PepIxFPNm6nObkSO-11" value="" style="sketch=0;outlineConnect=0;fontColor=#232F3E;gradientColor=none;fillColor=#585450;strokeColor=none;dashed=0;verticalLabelPosition=bottom;verticalAlign=top;align=center;html=1;fontSize=12;fontStyle=0;aspect=fixed;pointerEvents=1;shape=mxgraph.aws4.container_1;" vertex="1" parent="n_Z7QNfw0kOYRbPjjem--10">
          <mxGeometry x="56" y="81" width="48" height="31" as="geometry" />
        </mxCell>
        <mxCell id="n_Z7QNfw0kOYRbPjjem--12" value="" style="swimlane;startSize=0;" vertex="1" parent="1">
          <mxGeometry x="322" y="49" width="160" height="120" as="geometry">
            <mxRectangle x="-770" y="140" width="50" height="40" as="alternateBounds" />
          </mxGeometry>
        </mxCell>
        <mxCell id="n_Z7QNfw0kOYRbPjjem--13" value="&lt;span style=&quot;font-size: 24px;&quot;&gt;&lt;b&gt;BACKUP&lt;/b&gt;&lt;/span&gt;" style="text;html=1;align=center;verticalAlign=middle;resizable=0;points=[];autosize=1;strokeColor=none;fillColor=none;" vertex="1" parent="n_Z7QNfw0kOYRbPjjem--12">
          <mxGeometry x="15" y="40" width="130" height="40" as="geometry" />
        </mxCell>
        <mxCell id="ann6PepIxFPNm6nObkSO-12" value="" style="sketch=0;outlineConnect=0;fontColor=#232F3E;gradientColor=none;fillColor=#585450;strokeColor=none;dashed=0;verticalLabelPosition=bottom;verticalAlign=top;align=center;html=1;fontSize=12;fontStyle=0;aspect=fixed;pointerEvents=1;shape=mxgraph.aws4.container_1;" vertex="1" parent="n_Z7QNfw0kOYRbPjjem--12">
          <mxGeometry x="56" y="81" width="48" height="31" as="geometry" />
        </mxCell>
        <mxCell id="PgFq0PD8M621qgvkV6Xd-6" value="" style="sketch=0;pointerEvents=1;shadow=0;dashed=0;html=1;strokeColor=none;fillColor=#505050;labelPosition=center;verticalLabelPosition=bottom;outlineConnect=0;verticalAlign=top;align=center;shape=mxgraph.office.clouds.cloud;" vertex="1" parent="1">
          <mxGeometry x="-749" y="279" width="124" height="70" as="geometry" />
        </mxCell>
        <mxCell id="PgFq0PD8M621qgvkV6Xd-24" value="" style="endArrow=none;html=1;rounded=0;" edge="1" parent="1" source="S9Cv3rVsNq0ONA8z7l8G-20">
          <mxGeometry width="50" height="50" relative="1" as="geometry">
            <mxPoint x="-560" y="329" as="sourcePoint" />
            <mxPoint x="-640" y="317" as="targetPoint" />
          </mxGeometry>
        </mxCell>
        <mxCell id="PgFq0PD8M621qgvkV6Xd-44" style="rounded=0;orthogonalLoop=1;jettySize=auto;html=1;strokeColor=default;jumpStyle=line;" edge="1" parent="1" source="PgFq0PD8M621qgvkV6Xd-25">
          <mxGeometry relative="1" as="geometry">
            <mxPoint x="-1000" y="305.65" as="targetPoint" />
            <mxPoint x="-1084" y="305.65" as="sourcePoint" />
          </mxGeometry>
        </mxCell>
        <mxCell id="PgFq0PD8M621qgvkV6Xd-31" value="ZTNA" style="swimlane;startSize=51;horizontal=1;containerType=tree;fontSize=30;" vertex="1" parent="1">
          <mxGeometry x="-1000" y="179" width="190" height="261" as="geometry" />
        </mxCell>
        <mxCell id="PgFq0PD8M621qgvkV6Xd-38" value="&lt;b style=&quot;&quot;&gt;&lt;font style=&quot;font-size: 24px;&quot;&gt;Controller&lt;/font&gt;&lt;/b&gt;" style="whiteSpace=wrap;html=1;treeFolding=1;treeMoving=1;newEdgeStyle={&quot;edgeStyle&quot;:&quot;elbowEdgeStyle&quot;,&quot;startArrow&quot;:&quot;none&quot;,&quot;endArrow&quot;:&quot;none&quot;};" vertex="1" parent="PgFq0PD8M621qgvkV6Xd-31">
          <mxGeometry x="8.5" y="60" width="173" height="50" as="geometry" />
        </mxCell>
        <mxCell id="DsAFyzbHcJ4Hr4WfZOtH-6" value="" style="group" connectable="0" vertex="1" parent="PgFq0PD8M621qgvkV6Xd-31">
          <mxGeometry x="26" y="111" width="164" height="140" as="geometry" />
        </mxCell>
        <mxCell id="DsAFyzbHcJ4Hr4WfZOtH-3" value="&lt;font style=&quot;font-size: 18px;&quot;&gt;Device security posture&lt;/font&gt;" style="whiteSpace=wrap;html=1;treeFolding=1;treeMoving=1;newEdgeStyle={&quot;edgeStyle&quot;:&quot;elbowEdgeStyle&quot;,&quot;startArrow&quot;:&quot;none&quot;,&quot;endArrow&quot;:&quot;none&quot;};" vertex="1" parent="DsAFyzbHcJ4Hr4WfZOtH-6">
          <mxGeometry x="-13.12" y="93.33333333333334" width="164" height="46.66666666666667" as="geometry" />
        </mxCell>
        <mxCell id="DsAFyzbHcJ4Hr4WfZOtH-5" value="&lt;font style=&quot;font-size: 18px;&quot;&gt;Contextual factors&lt;/font&gt;" style="whiteSpace=wrap;html=1;treeFolding=1;treeMoving=1;newEdgeStyle={&quot;edgeStyle&quot;:&quot;elbowEdgeStyle&quot;,&quot;startArrow&quot;:&quot;none&quot;,&quot;endArrow&quot;:&quot;none&quot;};" vertex="1" parent="DsAFyzbHcJ4Hr4WfZOtH-6">
          <mxGeometry x="-13.12" y="46.66666666666667" width="164" height="46.66666666666667" as="geometry" />
        </mxCell>
        <mxCell id="PgFq0PD8M621qgvkV6Xd-37" value="&lt;font style=&quot;font-size: 18px;&quot;&gt;Multiple identidy providers&lt;/font&gt;" style="whiteSpace=wrap;html=1;treeFolding=1;treeMoving=1;newEdgeStyle={&quot;edgeStyle&quot;:&quot;elbowEdgeStyle&quot;,&quot;startArrow&quot;:&quot;none&quot;,&quot;endArrow&quot;:&quot;none&quot;};" vertex="1" parent="DsAFyzbHcJ4Hr4WfZOtH-6">
          <mxGeometry x="-13.12" width="164" height="46.66666666666667" as="geometry" />
        </mxCell>
        <mxCell id="PgFq0PD8M621qgvkV6Xd-40" style="edgeStyle=elbowEdgeStyle;rounded=0;orthogonalLoop=1;jettySize=auto;html=1;startArrow=none;endArrow=none;exitX=1;exitY=0.5;exitDx=0;exitDy=0;shadow=1;" edge="1" parent="1" source="PgFq0PD8M621qgvkV6Xd-38" target="PgFq0PD8M621qgvkV6Xd-6">
          <mxGeometry relative="1" as="geometry" />
        </mxCell>
        <mxCell id="PgFq0PD8M621qgvkV6Xd-25" value="" style="sketch=0;pointerEvents=1;shadow=0;dashed=0;html=1;strokeColor=none;fillColor=#505050;labelPosition=center;verticalLabelPosition=bottom;verticalAlign=top;outlineConnect=0;align=center;shape=mxgraph.office.users.users;" vertex="1" parent="1">
          <mxGeometry x="-1110" y="281.12" width="56" height="50" as="geometry" />
        </mxCell>
        <mxCell id="DsAFyzbHcJ4Hr4WfZOtH-20" style="edgeStyle=orthogonalEdgeStyle;rounded=0;orthogonalLoop=1;jettySize=auto;html=1;entryX=0.5;entryY=0;entryDx=0;entryDy=0;fontFamily=Helvetica;fontSize=12;fontColor=default;endArrow=none;endFill=0;shadow=1;strokeWidth=1;" edge="1" parent="1">
          <mxGeometry relative="1" as="geometry">
            <mxPoint x="-495.8333333333335" y="316.25" as="sourcePoint" />
            <mxPoint x="219" y="413.5" as="targetPoint" />
            <Array as="points">
              <mxPoint x="219" y="316" />
            </Array>
          </mxGeometry>
        </mxCell>
        <mxCell id="DsAFyzbHcJ4Hr4WfZOtH-22" style="edgeStyle=orthogonalEdgeStyle;rounded=0;orthogonalLoop=1;jettySize=auto;html=1;entryX=0;entryY=0.5;entryDx=0;entryDy=0;fontFamily=Helvetica;fontSize=12;fontColor=default;endArrow=none;endFill=0;shadow=1;" edge="1" parent="1" source="n_Z7QNfw0kOYRbPjjem--18" target="S9Cv3rVsNq0ONA8z7l8G-26">
          <mxGeometry relative="1" as="geometry" />
        </mxCell>
        <mxCell id="n_Z7QNfw0kOYRbPjjem--18" value="" style="rounded=0;whiteSpace=wrap;html=1;dashed=1;strokeWidth=2;strokeColor=#575757;" vertex="1" parent="1">
          <mxGeometry x="-330" y="415.5" width="258" height="247" as="geometry" />
        </mxCell>
        <mxCell id="n_Z7QNfw0kOYRbPjjem--14" value="" style="swimlane;startSize=0;" vertex="1" parent="1">
          <mxGeometry x="-301" y="439" width="200" height="224" as="geometry" />
        </mxCell>
        <mxCell id="n_Z7QNfw0kOYRbPjjem--15" value="&lt;b&gt;&lt;font style=&quot;font-size: 24px;&quot;&gt;TERRAFORM&lt;/font&gt;&lt;/b&gt;" style="text;html=1;align=center;verticalAlign=middle;resizable=0;points=[];autosize=1;strokeColor=none;fillColor=none;" vertex="1" parent="n_Z7QNfw0kOYRbPjjem--14">
          <mxGeometry x="10" y="80" width="180" height="40" as="geometry" />
        </mxCell>
        <mxCell id="bv5CLAyzpO2MDo3f1zgx-2" value="" style="verticalLabelPosition=bottom;sketch=0;html=1;fillColor=#FF3333;strokeColor=none;verticalAlign=top;pointerEvents=1;align=center;shape=mxgraph.cisco_safe.security_icons.icon36;" vertex="1" parent="n_Z7QNfw0kOYRbPjjem--14">
          <mxGeometry x="4" y="154" width="50" height="49" as="geometry" />
        </mxCell>
        <mxCell id="S9Cv3rVsNq0ONA8z7l8G-26" value="" style="rounded=0;whiteSpace=wrap;html=1;dashed=1;strokeWidth=2;strokeColor=#575757;" vertex="1" parent="1">
          <mxGeometry x="90" y="415.5" width="258" height="247" as="geometry" />
        </mxCell>
        <mxCell id="n_Z7QNfw0kOYRbPjjem--16" value="" style="swimlane;startSize=0;" vertex="1" parent="1">
          <mxGeometry x="119" y="439" width="200" height="200" as="geometry" />
        </mxCell>
        <mxCell id="n_Z7QNfw0kOYRbPjjem--17" value="&lt;b&gt;&lt;font style=&quot;font-size: 24px;&quot;&gt;VAULT&lt;/font&gt;&lt;/b&gt;" style="text;html=1;align=center;verticalAlign=middle;resizable=0;points=[];autosize=1;strokeColor=none;fillColor=none;" vertex="1" parent="n_Z7QNfw0kOYRbPjjem--16">
          <mxGeometry x="50" y="80" width="100" height="40" as="geometry" />
        </mxCell>
        <mxCell id="S9Cv3rVsNq0ONA8z7l8G-167" value="" style="sketch=0;pointerEvents=1;shadow=0;dashed=0;html=1;strokeColor=none;fillColor=#505050;labelPosition=center;verticalLabelPosition=bottom;verticalAlign=middle;outlineConnect=0;align=center;shape=mxgraph.office.security.management_role;fontFamily=Helvetica;fontSize=12;fontColor=default;" vertex="1" parent="n_Z7QNfw0kOYRbPjjem--16">
          <mxGeometry x="77.5" y="130" width="45" height="45" as="geometry" />
        </mxCell>
        <mxCell id="n_Z7QNfw0kOYRbPjjem--26" value="" style="sketch=0;pointerEvents=1;shadow=0;dashed=0;html=1;strokeColor=none;fillColor=#434445;aspect=fixed;labelPosition=center;verticalLabelPosition=bottom;verticalAlign=top;align=center;outlineConnect=0;shape=mxgraph.vvd.virtual_machine;rounded=0;strokeWidth=3;fontFamily=Helvetica;fontSize=12;fontColor=default;" vertex="1" parent="n_Z7QNfw0kOYRbPjjem--16">
          <mxGeometry x="72.5" y="20" width="50" height="50" as="geometry" />
        </mxCell>
        <mxCell id="ann6PepIxFPNm6nObkSO-1" value="&lt;p style=&quot;line-height: 100%;&quot;&gt;&lt;font style=&quot;font-size: 14px;&quot;&gt;network_ZTNA&lt;/font&gt;&lt;/p&gt;" style="text;strokeColor=none;fillColor=none;html=1;fontSize=22;fontStyle=1;verticalAlign=middle;align=left;strokeWidth=0;rotation=0;flipH=0;flipV=1;" vertex="1" parent="1">
          <mxGeometry x="-330" y="377.5" width="180" height="40" as="geometry" />
        </mxCell>
        <mxCell id="ann6PepIxFPNm6nObkSO-2" value="&lt;p style=&quot;line-height: 100%;&quot;&gt;&lt;font style=&quot;font-size: 14px;&quot;&gt;network_ZTNA&lt;/font&gt;&lt;/p&gt;" style="text;strokeColor=none;fillColor=none;html=1;fontSize=22;fontStyle=1;verticalAlign=middle;align=left;strokeWidth=0;rotation=0;flipH=0;flipV=1;" vertex="1" parent="1">
          <mxGeometry x="90" y="377.5" width="180" height="40" as="geometry" />
        </mxCell>
        <mxCell id="ann6PepIxFPNm6nObkSO-5" value="" style="sketch=0;outlineConnect=0;fontColor=#232F3E;gradientColor=none;fillColor=#232F3D;strokeColor=none;dashed=0;verticalLabelPosition=bottom;verticalAlign=top;align=center;html=1;fontSize=12;fontStyle=0;aspect=fixed;pointerEvents=1;shape=mxgraph.aws4.traditional_server;" vertex="1" parent="1">
          <mxGeometry x="-217.75" y="560" width="39.23" height="68" as="geometry" />
        </mxCell>
        <mxCell id="ann6PepIxFPNm6nObkSO-8" value="" style="sketch=0;outlineConnect=0;fontColor=#232F3E;gradientColor=none;fillColor=#585450;strokeColor=none;dashed=0;verticalLabelPosition=bottom;verticalAlign=top;align=center;html=1;fontSize=12;fontStyle=0;aspect=fixed;pointerEvents=1;shape=mxgraph.aws4.container_1;" vertex="1" parent="1">
          <mxGeometry x="-294" y="130" width="48" height="31" as="geometry" />
        </mxCell>
        <mxCell id="ann6PepIxFPNm6nObkSO-10" value="" style="sketch=0;outlineConnect=0;fontColor=#232F3E;gradientColor=none;fillColor=#585450;strokeColor=none;dashed=0;verticalLabelPosition=bottom;verticalAlign=top;align=center;html=1;fontSize=12;fontStyle=0;aspect=fixed;pointerEvents=1;shape=mxgraph.aws4.container_1;" vertex="1" parent="1">
          <mxGeometry x="42" y="130" width="48" height="31" as="geometry" />
        </mxCell>
        <mxCell id="bv5CLAyzpO2MDo3f1zgx-6" value="" style="shape=image;imageAspect=0;aspect=fixed;verticalLabelPosition=bottom;verticalAlign=top;image=data:image/png,iVBORw0KGgoAAAANSUhEUgAAATEAAABrCAYAAAAfB7VNAAAAAXNSR0IArs4c6QAAAARnQU1BAACxjwv8YQUAAAAJcEhZcwAAEnQAABJ0Ad5mH3gAABc9SURBVHhe7Z0xcqu+E8e//p/FvCLzTiBOYF6TKm06UZrm16VMl0aUpkubKs2DE5gTZFI8uIv+hRAIIWFwcGKS/cwwk9hikRZYVqs1u5FSShAEQayU/9kfEARBrAkyYgRBrBoyYgRBrBoyYgRBrBoyYgRBrBoyYgRBrBoyYgRBrBoyYgRBrBoyYgRBrBoyYgRBrBoyYgRBrJqFjFiNNNxgs5mwhSnqwe4pQqNNXNgN+tRFitg8XhgjLQZSWy7d3qSIjf1ODcRHEQ/11m4hwrgY6vAUdYE4DBGGMSYOZYhHRp2Gk8/dVTGqZ33uHdfrFfCpOvec96tBLkIlBYMEJmxMyMreW7B+G55bLToGbY2NCVvy5dv3qIRk5j4j4xgl54NjDzcu50jP+cf75ZNh6uxM0V/DFD07rtdrYFmdV1JwLjnnkvPheH3n/VpYzIjlQiuBS86ZcTMzydrPueQit5TkMoCeG9QyEoxxyZlpdJjs2ZlLt+/hGMe5J9y8uRiXIs9lnudS9PQ6U36ux8bOv+g9Mpa9ocaopOBsOcPSM2LMuH7HrtfrYFmd55K3enDce57zfi0sZMRsTijFxDAczDAYLmX1vCSjgfmkML2lS7c3cXpwg0FoYy9k7haj6Bkx64bt3XgndPtJLHtD+TAeErZOzmVMz1fOsjqfcb9eIQvFxD5A9Y4SAMBw9/wA3nycvdoT/Rp/X1RLAOC3u/bv3a3eCyhf/jYxjEu3NynwlDSj4BzM/rqhiANESYYsSxDdnxlr2d22OgLe8K8RYsdI6iJWccYmYGJ+H6a1FccMkVqdGbZ3fzaVuogR9uKmIWKfjCYGY8amwvAeSckg8grV8x7bXvMZsj+Ks2/+WJG7b76YZo0iHbYP49Qr3880WSqGGyFrP8kQbTbYbGLoO/DUeR+MMQwRuzpsxCDDtB7qckSPo9hWbRmmW/bOy1Ht7P+NlobMsWmg3u/S7Tt6fTbbWo/IXmzBIadl1ENw97P3ZObG/k0fzO+1N+n6TNP11X0Mnwfr8gpy7vBSrf61DKb049P5WbJtRvXs4EQMzT7caN8cx+tfH+iHDqzr5bTOp8my27na+M77+P4O/Rv6Y5xbfRoedypf7IkVeNWPAH6LHYDgRvsxGQbOmI/tL/y2PxtjyfZFjKgZA88P6Py3Ibv/BDgDAAYu/htt66V4NZ6abrIsAxgDFwL5f4H9dcv2z13rNZbvlfGNcV7YHf6Ybs9cihhR1ni4TCCvJKSskLcud2SsrtVI75PGM+fIpcTxeISsRNPPEsmTcVHMkn2Kd/wtChTW1jkGNdLHVikQuYSU0uibNXsw+4bGg6zy5vwDKBPcm15NnaIVz3NIKXGUEpU4436YIWt3aPql9wVHXlWoqvFrGehf+wCHqCpUlehkjei/zDKUjEPkOfK80+GscWpsq7YMEz0x0zJ3j/suRmZa/VFvyOGdXLq9lNIZpxnxxCZzRmDfF89zfd/p1VyMMMbsGYNbxrhX4PLomm86nbZeifFZT5BDz7NlOzjhWXnP9eB4Q0wPpT8Ut26llLKqKrWZH7rukRM6lzNlnbpffefdO0ZTr+YX1udmD3zHmMKXemJF97jHnX7cb//grjHL7vjT9VCn91ChMAZhxWkWo8yQRBGiKEKSlY2XAvXEPLiflezG73312eJX62Ia8bW/L+1xzNjgfGr8e9N//8avnoICtE53+Q7TD5zGJWW7MHVVIgk2COPUkz9o9o2hdzq2exzVghqkdf62263amv/ruj77+l9SlpuRMZpx2+y1ja2ZsJtgsfvlC42YMWUB8PIUI45jxPETXvSH5Qv+as33pnTdDTekuaAv3b5Ocd8E88EfsF/qjJyEgfEclZzg7k+gW7Qo8dIou3pvTRg+ZMNQoRWFDFEYImw3/QCAoW/D+JgXf/0X7ZrL71/NxT9X9gmYQKWNS7sde+d1dzCmgwDKLEESBY6FBLNvtoEdwQp0B0GAoJuvzWNJWU7OHOMF+Doj1ovtlCizDFmzla1yuhtrlPof2ofCFBZoXzzp2A0Dv0EXR/n73jV6+6c+qyeMwcfg5jrieNgt9hQzn5oqLjaMUy5GWaI0tiFb7J91fEStkoVhiE3Q6Vr85+nRSdlLsMPhKFHlOrapKZElgXPlbjJFjE0QISvL5kElkOc58jaONYMlZa2ALzNideeLjtJNKY2nNEr04tBtmgYAdgPl2V66vaZElqjpXhRFiJKsa1sm6rOnZSY0l2GH1hnLXlEYBvtjU0lYOlWB+r6n4/B4tn/wYFgIbZAYF8gr0zM6Q/ZCbHd7HI6yWUQw+po8Nd6j2bcpnqC1aFAdcTzssdvtsOvmsBNZUtYY5hi/li8yYmZOFoOo7AuvQvvQaKeUW/zRwTJrJaiLrQHs7k/jpVy6/Tmo3J34rLyfy9FNKd/w+qTjYR+dSsIbc/NTIw0DRFkJrlf/mu142GPXU/xc2QtQ11ZsaYvd4bm7Vo3PzfhZ74GIAnGbF6VzBZecmi0pawxzjNaKojnLWtqbd/A1RsyMcTiX8PsXgZ5SmikByCKEYYw4Do1lXmOB4MLtdwfb8DZbu77fLW/rAO4iya6XILhpUxiyNmXB9jinkb2mqI3psxlzS+7jZmpdozZ/fO28mU9rZ57sE5QveIp1XNbY2sTUAnEQqNjSxkjK7F3Lnc7MBOksCpEWNeq6QBp2iaXdA9HjudUF4tar8tPX+TmyzH0yvBY1pkRA+mNU+q+t43zcm5+AvVy5DNOXbO1l5hZPImJvX2tzLc1euv0A3/KytSTt0kuLZ+xjnFqiHv9++LvPYZsRGVaCqp2CMKZTOJbn3UmQ6reswvq91izZNidTLKZfe65jjSe7+pNXzc1M9p2q89mynPtcONl15Pj2d6f4Ak/M//OeHq13gN4y+XZ/HAZWGYfIKxwdwY9Lt5/DIsmuF6E/lbY91JNs93i2dWbg1CkAxjjySqKXaRDc4o4zpSPOu40BZZkhifoB9FmyP0h3rP7BWHN92MfaHVx9Y+AiR3Xsry5v90dUwvzJGgMXFY7PxuzAZETns2UB2O6fkQvm/d7H7iBR5Rw9lTAGnleDFJJLsZFSSvtDgvgS6hRhsxLJc9sAFYj1b/yYQHW8UF4esTq+wBMjCA/GKnD22v+RdD3h51bEz4Q8MeKKMLwtDWMwEgfV1Cg/DqZuxM+FPDHiitjhUKncqzbGog0Ya5I2KzJgRB/yxAiCWDXkiREEsWrIiBEEsWrIiBEEsWrIiBEEsWrIiBEEsWrIiBEEsWrIiBEEsWrIiBEEsWrIiBEEsWrIiBEEsWq+kRGrkfZKtns235s+6xTh2PeaOkXcK9kee8p2Ndil2jchwthXxn5GSfip6HGNbafGvATN21Y/VEwDQJ02uvRVZb0gX3nsPjWKuLumPqrTtfONjBjw6854iR7vXvDGzJfr3f2y9moMR1tRZ4QixiZIkJXqRXics6YuZOCudFzECHXVGaaOz1CizCIEYTyox1fEGwRRhrJkTZ8ZWFkii4IFbhwt07E5dHK1NO8tZzfmhzXSWNUu+PjtPCLLeezPp07vVXXxpoL2w5wXWH5H7Fe9fh/0K7L91ZqrXEhuvLIXGHsddPfKbXdFZ/t10/7j61f69l7Dq1/dOzh+9+po+22/k/D275Npxjf31cPT0LpeYoxLyroM6voZXlc/lW/lic2jwFOUICtLMC5QVbreoQf9Uj6e918Fs93jgWNQ8aVOH5EBYOJ5UDJsd8jB0a9wrkvYDaspbbFXB8Dbp5T0Ia4bXXn7kpWM1sUPNmIBbkWOqlLlwE5dD62R6dVrV+iqL12ZN11HwPeu+h0OUkIar1jezq4JWCMNQ4SOaenZ6CpBjqlrEav4S/tVr22N1IjRbEKjGtBEJscCrdia6pd+kaIquOuKE9WpJd8RmzwpaySud1b/62KW3lRMLmiqmzv6p9ud05ciVrFTx7m/dn6wEdtit99h67IxDqqmlthv1+NPFzV5+2eVHpvxtGxkdAVYNboYqmUQiyckZYmyzPDouKnOYndAzlW5ut61XMSqbJ3thQIAXhFvAry8/W5jkSgzREGIqd2q01DFAsHAhYAQKnaYWUVBXAQ3Zvyzi/uZYb4i3iBIMgAqhpQ3BTbKLEJgDHSKLBfn9L98f0IcREi03pjW28hD6dddE1eFt3/n9AXvTwibfUZnI9eKPb/8PvhjUk507GgQk5JGXMojy963938lc9EvQ8YYl1blMUVbroxJxrnkvPt/GA/LJR/rk2Z2TKzRW6sHPXZrf6P8FveVUTM77YuJ2brrvnDr3ClnLI5lj0fjkT8my3XsM/s/1NvU2KfnfMgl+7IufrAn9hm84D5UBXNLpkqQqVfGezyV4BaqclqJMsuQZRlKAIzf4XYwi93hcJSQ8jiIubl5w6NdGLbZ+v3Y4T/BgDLBU6E9PoD5SszxHId+aW5s9w9QYcJXv1fRUP9VFcf5gz2l17HArnjyeQyn7gpdoNmu0D2Ps/s/0JtdNm8+5/aFiWpwDtcEGbFLUpYoIZBXEvJ4xOFwwPEoUQnWVK02lvHrFGEQISkZRF61FcWrXABZ4jZ6s+gMo73ZN/F2/wzBgOwxRPiYAUzgeZqlbNAVpY0K1B7UNJ3BEWrsptjGAsiSBF3Z67P5yv7bXFNfPhMyYpekqY9oP+S0kUD5AvVgrJHe63qLR+yNHba7PY6VALON3mw48sYw2tswzrXF/lmAlSXKkkE820/2U2gv5xR6pe3S1KiLFHEY9gLegYqQf4DP6v8UrqkvnwsZsUnMnHpsf2H8HrZvcr0QwOEsiL79o6aZRiX0S6OnJr4pyHooEIcBgijB2+87PDxUqKoKlZRqEYNYPWTEJqKnHs5cLV309fevxmNpplNeo+N5arIbuGYCHaenZ4tQp7hPSoDnyDlQJvczp7Ke8Q2wjfnyFHGErFQVxY+HPXa7Lbbb7UzP0sfl+z+da+rL50JGbCI6j6t0uGLFq8os4q0bpYO0vvQHTwpGO7208bS/CHpqy5Efdtj9d85Udnp/1cPB4+E2D4dhAvBUtDH1eLgLcNn+z+Oa+vKZkBGbyu62WXF77OdQ1SkeVSp/70bRK3QuL0Zn84PfNit+O6h82RLJk/3j8Fp5E7326vPFk13hWI3c7vFsrlbaZNEgkXI4vg77IbD9cwcGIHu0jaQnP86JXkjw4fBg2/Nmc0pWn2X6vwzX1JdPxc65+D5MyBOrhORNPhbn+jeUrPtM5P18GyOvRuVxdb+7dOb2GO3BmryvJhdomOfT5Ql1eWKsyy9j/jytQe6VSZsn1uWeDbZ2nL4cKcfn7W89VR9ZM77ut6g+GaofwshLavPKGJNcCClEp6fB2Fy5WrL7ParWs5bfyeZS5LnM29/Lsvb82efOJ8t37HP638uha9ByHF8ZjOSJndmXwecr42cbMdPIuLZB0mBj+Fpjo2+OQauOKrd+ZM4k45ZxbGkSY3vy2dCYSqnG50pgtGmN2MjWjFPfvM6byL75zP8r3Re1MS5OJPMOb5wqd4zbJcR741VSGA8V8/vKTjbmarx+o+GR5T32/P5fyojJM/riGs+a2Egppe2dEcRJihibKAN4DjnM0SCIT4NiYgRBrBoyYgRBrBoyYgRBrBqKiREEsWrIEyMIYtWQESMIYtWQESMIYtWQESMIYtWQESMIYtWQESMIYtWQESMIYtWQESMIYtWQESMIYtWQESMIYtWQEUOBuC1tb28h4tR+0+o4qtT8eeXgnfuapebXQp0iHOjS2kL77aNXwifo23meibMhI9bSlYVXm3pfeZZECObccM27+NmN/cUEPrLvVWLr1NjuftmNvxk10jhGHDuunW93nr8Y+y2JPw/Hq5dbuldGf9nbLz/p7ZtVlbvfxnoO7dtkXTq9chbT99h1RSwJeWKjNEVkAZTJ07IFOa6GAnG4QRBEeHSXWiKIq4aM2CnaQrhGxRwzblLEKv6j4xu9mEqNNFSxNWeIRceO9HT1jHhMXcS9qtabMEZqVR9qqQukcROP2ah+hWGEDAJ5VeF536+EM0v2R6kLxKHVt9gfjxz2bTx+WadW+xPyfUyRU8QbbDZNhSpkiJq27XkdOc/Ocbl0bsqwz2sYw7XLd4WM2Ed4f0IYZSjB4K7ypetPuqto6yrb59YCrNMQQZShBIfIc+SCgyFDEgX9snKA8riCCEkG8FxVwc4FUJaq6O/OKig7T/YHqVOEQVPkVuTIcwHBgTJzxyPbvpWsjbExHb90dK6INwiSDNBjyQU4a+Q72vuYKie4UTFVdU10ccFTYcBO5wxcCAjRjCsKnAYPAMr3J3Ve334rXTAGlBmiYOFSfteMPb/8eZyIXbjiO0aVpEEVGTumovd3lLBR1YWMakX2vr7P5JhcdzUcXyUd9blVMWmm7AEunY3gq7I00I8ck637Zld/as7voHKVp71P33PljF1XrmPocU2V770Guziurc/vCnlio+hq2O5CsExUOOxO+FDbP1DFwF+tJ2OB1wwAu8M59UyVF8cg/rN71VUff20PWOPvSzko8Iu2snnfU5wne4w3PMYxYsfmcSx67A4SUh5hznJb71UX923ZYn8ctgd2OEgJedxb3u62WST0VMwesJQcN3pc/GEof//AB+eohefWNajP0c+BjFiLdcOFITabAEkJgHHkZ5cl89z4xSuUDTtvKlm9lwCA96pAUfQ3fS+9DcpeT2M52SXKLEPm2MwbfqfKnyOLxuNaaPu2TCXrYE6p7xGWkKPHdRPY3wAIbtTi0svfUd38VMiItVg3XKkuKi5yVMfDwAubQ1te3rBihXLDzrwZa/x7g8pjiyJE9pYoI9ThMaTOfsyVPQZHrgo0D7beM2F3QKXjP0mEoAmYDw2a7ttcatRFijgMe0HzYNZYsKAcm3PHRYCMmInrhjvisN+d5Sn1GEwpPzaV7HD1uduOxrxqu38A195OUaOuaxRpiCgDwB+sKRhmyV6C7f6Ao5SocgFxbqKxkwJxGCCIErz9vsPDg1rUqKRErhzAiSwlh1gaMmKfgvaEmjSN+h/ePjCV7DDSPk4S4JaraU8WBQiCAFGiVgMr51R5juzl2O722B+OkLKCYADKBE+t96jjT9Mp4mbVM5c4HvbY7bbYWiuxU1hKjpv54yI6yIh9EmpKqYKzOnB+3lQShlH0BHuhPC2TIg4Qvd2hkscTnuZ82R+mrjEUqQPa/fibij+5g+j6N4ldtoOepg0XNOaxlBw/Y+NC9f6hVJzvDhmxz6KZUpYvT3h6KWdPJUvr6tZxtuEvCWqkYYAguHesAL6jGnw25DzZ51IjvQ8QOPKaakegqI0vPtrTzAJPiXsF1ulV1ikeVTaqE1vfijlyAsyJ9/vHVSN9tOOWRA875+LnMZLP48OV5zPhO52r5fveva/uH5OMcymMnKBWHmOSi1zmuZC8yRFy5XjlvDt+tzHJGB/8bnKebIs2l0v1mbs2kXf5UDrnqT1WLgVnnnwwq2+NPOb5jWvXlkuR63Go3Dje6KM/HLe+58vp8t/AVB/bc+c8z7bOhRTCP65WZ/ZBDTmOr74lZMQ+0YiZN7fra+++OW/2G35X5d2FrjZlCGzxVc4lA5Mir2RVmVveGKdhn6bKHtCOc2Szkjqr1ih0x2JcDIyrRrU35fUNvEklOv0BkIyrY3tvdo++Z8uRlRTGg6OV5TvPLp0zNkyolmTETDZSSml7Z8Q3o04RBgkgKveqYhFjE2Vgvu8J4oqhmNhPoAkMu+M87tgTQawF8sR+BCogn5QAYxx3D7dQv0X+h3+vL0iyEmAC1eAnNQRx/ZAR+zHUKNInPL5k6s0VGsbA7x7w3yDVgiDWARkxgiBWDcXECIJYNWTECIJYNWTECIJYNWTECIJYNWTECIJYNWTECIJYNWTECIJYNWTECIJYNWTECIJYNWTECIJYNWTECIJYNWTECIJYNf8HX4N8RP1bTfkAAAAASUVORK5CYII=;base64,iVBORw0KGgoAAAANSUhEUgAAAO4AAABNCAYAAAChZlhiAAAAAXNSR0IArs4c6QAAAARnQU1BAACxjwv8YQUAAAAJcEhZcwAAEnQAABJ0Ad5mH3gAAA1pSURBVHhe7Z09kpw6F4bf+dZCO3B5BWIFtJOJJnUmwu7kZg6dTUKHTebUkRPDCpoVuBxY7EVfAPpFovnr68H3PFVUeeAIhKRXfZBknScppQRBELvif/4JgiDePiRcgtghJFyC2CEkXILYISRcgtghJFyC2CEkXILYISRcgtghJFyC2CEkXILYIZ5wW1zSJzw9TTjSC1o3MdBekFo2ee0buLT1Bbn9vDTHpR7cVfNoe0WdmzTp5b59FKc8ctwpjvu0NfI0RZrmmPAahqXpPNpLOrluHWa2C2IC0kHIgkECEw5WSOEmlqJgrg2vPAvDwNY6WOHf+fH2HUJW3E0Xt52AKCTT9+IyXhrTqLj1Hk7ZCllwLjnnkvNhvcTTzcMu0zm3GdTFnMREkIFwq0I1AC45Z1bDY5Lp81zyovIaSEj0kcbqNGhIxrjkzK5cJh29PNpeCikqLtkg/29LuLJS92OecCrJx54TTTePZcKd0S6IyXjC9bnTIGysRsoskYQq2OmBLQP7l8EWzKPtZcWNvXeEhas6uEJWocuKrYUbZUY9rWCRcGe0C2I62wlXN34mC2GlG9SQ2wM7l20BaVf80fZu3nkl4gLX5uZ66JNBMyZcKy+sEFKKyvUKGB90CrZwVL6cvDiHeV4onaHrhFxvg0kW6JQWCXdyuzAMvR8W8PAM29hHrP166T04v2xm265kM+GaBtTZ+X9bltY9x1xcle7R9l2BF5XQFT1LuIP3s4g9T3rC5dxx7WP3DglwrXD99G4+4s8f0Z2D3w78v338MQbnCHSSm9r7LzXiicEvgzm2G7DRdFCN72X/T/6MDMDhPetPlPg+dRQxeYcP/rkxtrJPMpyyBIl/PkL2TwHOAICBF/8g8w1m0pQlGsZRVBWqqoAquSlll10FhKjA9RmOSggIcb2fr/aCL7reKkgpcZMSolhQd0Fmtos6x7Fs+j8Yiqp/N5WkOeOTPcq/xp4VqISElAKVKrzyaI14t7jowmEoKgkpJaQw9VPqF5hjuw3bCLf+Dp3t9wcAQPLxRWf652+r8Nrf+Kn/+IB3UbX8xO/2X7BfQnLC9SYh5Q3XU/QB0+EVxO2KU5Yhy074qoXjlV2QBImfhSRwLkRywlchIISAuBqZJ+9M93b/+SPMaRcAaq1ygFe3rjNNMly/GgE0v8QG9gzF1xOyBAASZFfT8ZVfAtOcANBlH0hOuHWeKqRVZg5zbBeyiXDtAnn52LeY5CNe+tJrvv0IFwYB9I16is4eQZIk3dH/3bbtZnU1r120+K17XIZe5x1BAayx9zv0A7Qj0PxCJ/UEpv9qcD48Ic0vkXUAc2y3YQPhWu4QgG+vOfI8R56/4ps62XzDD/UOjrs69qvXF+6j7f/r9Isz1OKIw+GAw9Gq0MXMbBcQ+KW83kl1s8a+xDFNkerjE876mmkz2dVyuwE05Rnn4wFPTylyb2HOHNstWC9cyx0CGjRlibI/Gl0YDb6ZGorjuLkTeLT9306d4+lwRNk0ABgYL1BVFSrLVV/Mlu3iETQNGusIk+F6kxCVGtNQNCjPB29V3Rzb9awWbmv8j1GMW2S5JWhgfYIA4hd0EbL3/afCo+3/q3gDKuKG2/WELMuQWd+4S1nXLsY8JcUae45KudKD4wZ/2CLJ1JiGQGWpsjm/DpaxzrFdw0rhtvjxzRrVE34hCOjOW7tFCT6qjxxvtM0ebGAvH/vvrkfbL6FFfcmR55dVa3//LHNdzTksaxf2d6LT4aJGrtebq8GjNfZThA6gbb1v/gTZ9avJu80c2y3w54dc7szj2vOUgTkzGZsTDS1JdObXxuZfH2AvpRRVJav+sBdwMF7o86F53th7S+nnY2Qe18tMbN41dn646ERIYV0Op7PTWOUhKsnt9488H7yQwn6IzdJ24cyFsm5uXXj1Yb/3GnvGZSWEVMtdzXmVX6/t6/IJvdsc221YJdzY0kKHYKF4ab3Db8iPtw+tp/UP07g3X4CxWrih972/AGOYprexVv84z/E6xFAH2JktbxejCyTYsKzn2sfeWR12dh9luwUrhOv38s5Fw0jjFVXh9O5gXBYj68MeZz9PuFKo+44slZPj7761cLuli/Z/Crkv3O6avWqrfx8r3wN7p0xDwn1Au7i7hHGtfXxpYmfripJF2tEc27U8SUkhSAhib6wcnCII4k9AwiWIHULCJYgdQsIliB1CwiWIHULCJYgdQsIliB1CwiWIHULCJYgdQsIliB1CwiWIHULCJYgdQsIliB1CwiWIHTJDuBNDcIbCbwIm1GLsuqKdEBrTC9s4dvghHds6R+rcP0Xu338Spjz8Z/iosJ2LNwyr82B6HfbyXgZ6lP1Ec7fOpyci/gVmCBd498LBuTqY3nSa6XMc/OWdl6oXy+FsNmqLUed4OpxRNgBj3TPQlDgfD4PG9oExsJEjRJ0/4XAs0TSszzMDaxqUx8OChmn2thrfpV5tU2rtLbwV/SZK7L1/YSPaH9BbR5XfN93sbN+0uOTdnmMLu+L1+P+zfjpqd4zQLggdoR0B4nvvmN02nF0T9E4J/g4cY/T3CgX2Gjzf7NgQ3a0hxpS8KZvBc2fQ593fjWIuaieMqe+p7Xn3/Knp/n5UWx2p9wcz6xd3HjVej2eUTQPGCwgrjkoQtQ8vr+BEa0hO+MwRjjUTob18Qent5Ki2Cx3u7pjg1D1gEBLjLnpX/nje2h/f0ASf+9ZROzVyPF+fwe96FsS/yQOFe8BzUUEIidv1dLfRamE5sSQ6sudOWNMaTo3Xc9fgPlsb5NrxcKbR4pKmSNN8xEU07nJY9Krxh93k9uJ9bz+lSPN6uvsV+fYFWtS5iU7wlOYYmNxDucn8GZnak/iOuxwcP7jE32cT+9D4RLRczHiD82Vk27c1Ll7Z2Y/o0h/7zd5LHHs751ledIjZ9ToF/yd4OvddZYc7LqPaOTHojt1Ja6Pcu4FbGXVrlavsvcfIZm4OY3kbuabet9tMrJKV/VnhF0LMVQ6etzZrY1xyrramZXqLWv/2IXy32v/bx2xIx/pnWjFoA4kW2zMmeVHIworpO61c1KVAO1N1zXn/idWXm/7Mszfe68qza0tMsj7vekM43c66DeuqqpCF2oky0A6W8kaEGxGPvjyW1kbdxxdnT6V2NDQFrgt5kEDtLxzJkyaed93YBjcPfINLGb9XrCGGzse+5a1dFQfZGRAoR5U+lHhup7jU3n+nmH2oXPSlQBlYnTR3dmSMjX/Ev3GD99fnh21kKQ90lf8A9WsXvKmPxTrg8Nx/k5pYNg0Axl/wPPDQu1gwoZAULspdHsbBEX2oAP7s5ybDVUrIm/8JoXbb93fmn46K1sA/e/fWYwUTcNzkHvU9H3CX9Xf8IFZwglOgDJfaD95Jj08My34RvMK1i73Z40bFWEN2Hb7XGv4i4apYOAzFP75Q0M39Ho44N10AZBUOQ1QFUJ5xPKTzvwN7VMxXN2ykmgbiGOh2BBP4eQkqlKQXdrJn6r21UJyMq0Y8HIjrOqjwd3yIpfahd8LhfaDs/xx6POY4/r2+lr9HuPrX9nOgV2tx+dTNI6sAyIokO+EmCjA0OH9aOC+nQnvq2Kr2KHnk1x8t2vqCPE2dAZeDife4gjWxgEzcn/KLHYoyxac+b+4goR13dgqPtv/DZFeIgoOhQXk+4tAPTm0t4jci3A1dxODPmwpwFfn1U26gLbxZZOg6WvNrNJ6fGnl6wOF4xs8PL/j8uY8KLyWqqe7so7AXXXihKHWXEnCXCUNyuuLWe3MF7z6jyvMRh3urBmfwRoRr3LjgtIoKj/nhXXhaqb2g85ILhLxkzd3QmhOjuAVwp6zG3eQ6P6JsAF51U2VZ5kaFX8/y9zDfn+Zzwj5E4bvLdhS8KTza/u2QZCecrjcTnbA543WjHu/NCFfNszaBn9zxXy+gfu3d4MHghYcTAd1G/SKvcDGzbpECyu+oVQDtoJusXL+wqNex1nMZn3eGVU+2u9x1uuFnhtZHb2mvOvU3s8ClbdEO2tiKRT4x/GHm6Ww5HSSd+zlD6dGpg55713t0hD3uB4MSzjX7fMFYFwzKOjuGmZsdm/OMTGHIkSkbPc84mGMYTnusmQ66W0cyPBUSTRewlVvaR8oyYm+H05xUvtJM6bmXAtNlo+fNfUJTVEt4rHBFoSfXTXxaM+E+iKhmL3pw0vgFZ5heINbCBD2Pa0W38wU6dQGGjZUmVHkKs5jAX3wRWyRhyprZk/0h4a5YgDG1LENzlc4CCW9BReh+q+zvLcAIlEFnGymD2cK1fgj6+/t10uWzj7es21m8TczlscJ1GnLgGPSgvdi1wFTjHlj1RHroKEJWVoXbBTx8wtQFGDbmP0qEGoGNG96yC6AtRhqK1ItHrIYaFK7s3tOOG9uHkIzeW0qnsYevG2ILSwbhK0frbol9oO5i9n6Abl7Ey2CBcKUUZkWUVwfD/1zD9PO3gsJsEsQOeTODUwRBTIeESxA7hIRLEDuEhEsQO4SESxA7hIRLEDuEhEsQO4SESxA7hIRLEDuEhEsQO4SESxA7hIRLEDuEhEsQO4SESxA7hIRLEDuEhEsQO4SESxA7hIRLEDvk/9eIIOogRDj9AAAAAElFTkSuQmCC;base64,iVBORw0KGgoAAAANSUhEUgAAAO0AAABICAYAAAAanHLSAAAAAXNSR0IArs4c6QAAAARnQU1BAACxjwv8YQUAAAAJcEhZcwAAEnQAABJ0Ad5mH3gAAA0QSURBVHhe7Z09cts8E8f/fs9CpsjkBNAJqDSp3LoDS6lxlzKdG6qUOreunibkCcQTeFwYvAveAgCJT0qkZD+mnv3NcCamwAUWxIL42GDvpJQSBEEshv/5NwiC+NqQ0RLEwiCjJYiFQUZLEAuDjJYgFgYZLUEsDDJaglgYZLQEsTAWYLQddqs73N2dca126ILHd1hZacrGT+DSNTuUdn6rErsmkNozNb1NU1rPJQp2ifwoTn2UiOdKfGnkl0fIikECZ1ysksJ/umJuGl57KQaCtNbFKl/y9PQOopLsRLkukp/CyZfLMNdbRsiKc8k5l5yHbWUpLMJo68pUNJecM6vRMcn6+1zyqvZeRMzgEw3VMyLGuOTMNhomHTuZmt4hUi7faC+SP8J/2mhryW9A9wUYrc+EircaKLMavG8fKqllEFaCmluGY1nJ1PQ20S+oV6jp8k3nVsk6nq2CjHbxut+20dZcp2OyEtZzgdW6Xz7n516GPfyemt5mKAfjfDAgR8h0+bYxx/PVjBit3VHwWkopasmtcjBuRjJC1vaIh/Hgqx/KqixZLDIqMqjOhzkjESbZSGck6jC9L9+pH+c60Ya+IDdttMOLUun8v62UlsyxYbB5bmr6AacMdlrXMifLdxtlmG9P4nn102BoTodiXYxzx5BTeZ4jK+w8fT3gPRfqVfPIqMVcqU7thMyvzgJWj+fS4J+D/if/hQJA/p3pGwf8c+6yafYNP/x7Y4ylb0qsdZl4vUfh/34OCfnFYwXOAICBV4/zZFu0hwPAK9R1jVoJ7u8fWgZe1ajrCrz/5YA/u/iqtpJVQwgBUQ9P4PAHziPdDn/6d1ZDSomjlBBV4r01JdaHVv/BUNUCQtS6HgC0WzzoDIq9/q1/mKMWAkLMfA//IrdrtM0/MO+ffc8BANnPe5j3+fputZbuHa/9Hz/wLRt+cnnFezcjPaC2rkyLZBUex1rKHPnZBvujhJRH7DfJB86G8RrH/QZFUaDY/3YbuzxivylQFBs89gY1Aq9x3BfIsgxZscdgty1e/lrvIdvgWQhl3PuhgrJvQzdlv7em75UBXh+xKTJkWYH9c9W/5/ZN6H9lyPxqySL3FsDNGu3wQhnuf+o3k/3EvX6b7cvfcE/3A+l2D9i2UF+E5w2+fFvRHZ0iRz9I8bANKoXpNA3Fr6ELGIxKkWWZuvTfXdcl3lOH975nY25xsw2OauoHaRn/rXCjRmsNjQG8PJUoyxJl+YQXc7N9Qd/JO0NO++voo796U9N3OzwoiwX4b5z8EE6Vf0t0DcrVqncmyfMcuZlTOAi8mZHxLdbDCLdptNbQGGjVPExfbf+ivaFZCmeoegaR9M3TFipbBv4daJpGXX/fhkSv7+ped6JMEfk3Q1PiLl/j0LYAGJiZU58zBP8PcZNG2w3jplGGIbI9/GvhjNjEmzY4AOw71ChsanpDi8N2jfVaX9vDkLbdqntP4gL5S8aa84OhEsdhTh0dgtt1NDYauT1u0Gg7/H2xVhSFntv0l0DfcfdD5Aw/zWQXwMFaorQXO9j9Tz3Xmpp+KnPkd2h2Jcpyh0tckz8Cf97q6NBPRqcOdzMMtux1bGhQjvmjLx1/D+jrc2Kf1t6HTDgZRL2KYm6Dzh7g2H7pGelj2I4S/p7lRPnXdq7wva0GZw+vzi0dkh5jxjFDCCkqS2dHBzsP677v4OEq7cqqhRSidhxT0npA8lpIkayor8vNGW3K/c8h4VXkNzT7irkkTk0fMGa0E+Vf3bki2dinG63tQjqmQ0pf+3n/mXHnirAewjzCNF+dGxse20NjgP9KLPfn3/t9PLRv6HfyNkeI2jgpaBhHVQscI0u+U9NPZYr8aztXXJX7Z4i6Auv1YOBVqEO2OUJUfHg3Jt3zsL/uU+wjdQTl/CGOoeNEtnlGXbGkvCVwJ+mwcuID6HYr5Hqbi0UMlJjPjX1pCeL2IaMliIVBRksQC4PmtASxMOhLSxALg4yWIBYGGS1BLAwyWoJYGGS0BLEwyGgJYmGQ0RLEwiCjJYiFQUZLEAuDjJYgFoY22jPDSaaO7jDhE1O/RxnyXCUOue6aEisnzOMKZeIsFSdsZHDNDOnohcl062KFctfg1DlsX4Jb0eML0O30SZGJ0KSfQf+l/XbPwbm5hv8kzPp7HPz+2/CkpmtKrHJz2uAEmid9DnCcprxDvj6gbZkuAwNrWxzWeaTChjNwGWORy0s+GVMGXQ7GgFYd0pbn6Y5kGh12pTrj6RrS4nyGHlP4DJ3nMFIufTAV++7/8In4R1kozJEu6XOORF15oRdPnE3kYB8ZEx4h0h9hEsgbjj1xT2fR94P0F9IfzRI7kkTI2g8ydRGmTmJ5Xcin6jGFD9T5Ir5quRQz57QNntZbHNoWjFcQYgjDcA5NucYBDFVlxXWxMEeghqcZZtj8Vs84YT3MSX4/vs08/XAOGYrNEVLHuDj8ifTKi+BW9PjvMNNoc/yqagghcdxPDHGhg1Cx6hmbcLQN4LxQE5fRYbdaYbWaOde1KR7VkaztFk8RYd3Om5ffrbAqG8cw1Hx8rQ9YP2Ct0/pz/XNkzeaUHsH6QoldajjtRQmIlfOkzk05/N2Uak5upkX2bx5mbSOYQUV10PN5K82kcnlE5cfqyJbRNdiVVl2tytNH4PqfXsXp4bGDGX6dHJ6a4a0eduhhcDA8Tg7nzPPx40wDOSkSJwgGJMvh0p/w540tzQmJjHFZ1bWs7SmFlVZUdoT7Ibp9ZQVkPVdWlAv16O+bvK34sUHWfV4qRmxdV7IyJyY6J1+e0Nm0jT5MJpPMZJZqN1Y9+eUaTmFkkuu8+pi2U95FIu+hjpjkVSUrq478tH3741zZGVN5DNPN8ff0qUZrFOvrKFEB5je/4vrG4GvUG23tHampXnQo3Zyle0K/Mxv78BLsVLoOgzpJdDyj86ipsjwu0cM8G1a62wFrUkaj7vvlHNHZ6li5H016pN1E80/qn6q/0+Vy8k62/4T8pG6pNRuXmcPjGZggVLzGWYHM8l86wt0Qi6cFwPg9fvmxMHSojHa7xvoV1gp4i/awRh5sRRV9WMirHhL4+m7lU2AvJeTRnz6Yk/H9U/HHuKasM7D06P6+oAVDFcTmNFEQzov1W+zn1TerBPbFxIc8lA4AC46WzbC5Qjsw8vnv8P2oNZhE3Chee7q5kSVSfJLRdtg9bNGCoz7HYrsdVvka21YFCjYhPURdAYct1vnKDUacP6pATUJAHo/Y7/fY7484SqFioVrBhb8CQ3Dry7mmrBhCx+p4EzpomHWZfsJeFDRhLA/rcL74b6F0sEKeXhkj34voqdBnbF8ztOqnGK2JzRr2dDGMgQ+Bgg1ZscFRVGBosX2wvp5ZpgI1BRGCMxSPamX7mpWWJFi97tA1O5SrlbNAYc4DnsY1ZZ2g18Psf7c4mKBh9hXLu9jrA8f1/q9eiPr3DNiOY/sRfLT8kE8w2gZPymLxfNYYxARi4ogGCDCBoa3IAKOYWK/npp9BPEpfg3KVI19v8frjHr9/6wjnUlqR0M/lmrLSxPWAjv7uBzIbLv8g8myzx1GPjCrOlNFvY9MUYg4fbrTd7g8OABje8FSa4M76+qMaSfvyhLL0thBOhnE04Q1NhLQrbN/MYghFYochaco1Di3Aa7UtVhRuhPMpXFNWmrgeinmhJLNig83+OEQqTGwnfSx2dL2P4KPlh3y40Rradgjs3F8mwrP+7eXdfsCK1O5gvsQmHKKJU5poWCYI88lOYCbGHZNVGNZqzJApMVqYxDVljRDVwyyMJBZS0KHznZa7LuLHnHKK+RzUvD++WGd8iWP7uucyJt8skoaOQvP5cKPNNsdgONVfemzHKrXYpIZZBdRaRovtkz8P6rQ3FQD+S8+PhxU6Z56r05v5sR/L9RrOFV1TYrVW2/DhyiHiHUm3Qx872cEOkhxjiqxpjOmR/VTBr9rtk1dXHXarHHn+YC0Kdtg95MjzsF7jQ+9TOidILO502nHHx+gQenvpqVvQIU4rV1q+CZR95UUwfw9IccY+raj6Teohbuqwcc2r2P6oR2zPS0pnv2rYpzUb3vEQhk7M2SC9t3822bli2CtWm/LuXnCwj2jtSfcOCb0zBOvry9+L63XQm+1mQ3+OLIcL9JBO/oPDRB8z1s+49xs3aWtZ9e9i5L15OqfbhnTbh35OOTKk68PRwXOuiOUxtVzznCv82oj4MkSYb7RWw49evqHESFSAQjieN0OFpDsDUUfS1yKSfqpzReQyZRl5XlTGIURdjKs6Sb8YMXgPefUyXZbFhXrIWN1qj6fYY+F/JmGS8UrG+4SEzqNtQ4bBprX8sfpQ5bJ1d73OXKaXK6gj3f4CLjRaCgtCEAvjw+e0BEFcFzJaglgYZLQEsTDIaAliYZDREsTCIKMliIVBRksQC4OMliAWBhktQSwMMlqCWBhktASxMMhoCWJhkNESxMIgoyWIhUFGSxAL4//VPpRUluBVvwAAAABJRU5ErkJggg==;base64,iVBORw0KGgoAAAANSUhEUgAAARkAAABgCAYAAAApSgaqAAAAAXNSR0IArs4c6QAAAARnQU1BAACxjwv8YQUAAAAJcEhZcwAAEnQAABJ0Ad5mH3gAABRlSURBVHhe7Z29cqM8F8f/fq8FtsjsFYgrsLfZKu12orSbp9tyuzS4NN3Tptpm4QrMFWRSLNyL3kIIJCEBcizHyXN+M8wkcNDXkQ76ss5GCCFAEAQRif/ZNwiCIK4JGRmCIKJCRoYgiKiQkSEIIipkZAiCiAoZGYIgokJGhiCIqKw0Mh2O2QabzYorO6KbvH5EpsnktS1g0tVH5Hp8WY5jPQl1ILY8uhp5lmn5zJDl9TSfl9DVOOaZUT4y/CPmknQLuuOY5+z4zomx6XWSZfmbyknP41K9NAis0/9pxCpaUTAIYMXFCtHabxfMlOGVJTEykdUuVtghx5cXFZ/IjRcX/pwsM5cWeTHBK0eaboSePmfZRKUVBeeCcy44n9apimvlNFOfltDzGBLMRHchL//HWG1kqkIpnAvOmWBaQ2DDfS54UVkVwmWgPI2zLbRwIRjjgjNdmUwYdf3W8rwQVVUIrufn0splGy/GhjLU45yk6Ya8r5GpBB/KwFFfKqUbFmQcbC4zMgF1mlhrZGwWKoCO1lCZ1qBdCjW+DpqA/tXSK3tsed99f/6VMS7EfAdEf98OW0wrsauwbsBdG5krcZGRCajTxC2MzPDFZqJotfcmGjEblvFY/+oPw7HY8noe1/UmjC68Y9g4YPRiPOVn9KJGGbtRtFXf87HKs624YMbXlgnuzUQrKr13yrgoqnbRyKyOQ8svK1oh2srsQTJuGGWjHI3LXQ7TtEljb6eNOYy/XZ6rWF2nR9xlZff6R64j75G2y7/v1dtlEyzrIbqRGSuMlLP/1yT9jdrZ4CLL6/fmDIaG2Tjs/I2sm09oRVVVw6XiNxoF14yV0TMzK4VxTeJzdf3lpX+l7YYcFIduZCbDQXWN5fVWI2O/b8Zn6uUSI2PXYft/m9myctStq8rbmbKH6dbl/fg6LjtoH5GNzNTK+5U6YwSc8UWWt3s3rTUX03/tDQaZma/IXI9qBZMJR8YELwpRtX18VrplEluj4fkrEpM9mFb2bPR4jIb8pjhU2VWiGuZV7Hda0eo9BHBRta1QWRRzRkb/OGiJ8NU7330/IXXazrsq38qoS96yDZVf1IVe95go1H1nmYXIzhPXyNjdZGEm0ls5JmE6DERsebtheK6V5axxRSPjeHmsXDOGVPsauivj9Jl7rmpdHEZZcrPL7zUWC3XM/54QbSsNpZk0R11cMhAuXOH46vRc+Xoa6+Xya3RhGQ4zqRYhsvOs3CdzGfXvsv+L4fFbIv9MvuGRyT+b5z/X2WtyExg4L1BVBXiffgAodznea4sEe0itOx3+vqi/v+JLX+SSFA8q3c0rWsCSZ7CDS4cXdELjMGEPKYxXIpAkibz6/7uuu1o9C6vTM+Wb7HGWH3mI07a/+Rb5NbpI8OWret7gkG6Q5UfPHrEQ2XkiGpkagz4APD/lyPMcef6EZ3WzecYflebkC4Y84QV/vXnpCzO2vA4r0IozTqc9tts9TucWxdD+Svx+LyszocVro/4uscsyZMP1A4fhmcq/Lu/It5PQON4Ba/NkmqZId1plvJjAOh1cvm+RX6eL7akyPpJNecBhl2KzyZBbGy5DZOeIZ2Tq3xj10aApS5T91QyZb/A8asRP9xeDwV7DNeTTB7i+4xLdyodivvvibYkdjrmqxBfu/m0aNNoVhVvEEUKdY5PuUDYNAAbGC1RVhWr8KlzONet0DFbpYovTWaC1euRAg/KQWju7Q2T9RDMy3diPm2XsXmrdOzR41fva7SuGImMPkL3IyPJ6z8fT9b+U7Xc+/N0cntzDrfoJh6ESv2LdGEPPI0eluteT64x9Ysuv7XmExnFLOhx/jcOZoj3jfNpju91ie/lXYeBtdXpN+b5FPkwXyXaP01lAiBaVZkFc9TFE1kUkI9Phz7NqtgxFa2daG24M3csE39TAFkCpjUHGcTDAHr/17S22/BajLSjxy7DaerdZHzt3qI8reh7b7xjNjB02rMYCgH+HGoXPo/eS1lRSc9xtGF4A7dgX1wiN45aEDjdCuKxO+8u3Rj78dk793u8t8it10XXWHFWC7elfbfivESI7hz0TvI75mf81e0ycKxfGClC/7d9YSp3b33IDedfPCjwrNb58D9irVyt/VjC3qiKEFS6TS79CtKK1l+Rd8tqSabF6CTssDjvN/vzYq3BrlrA9KyIzS8Dmal0hWj0SnUvrtK98Pel5k/yiLuxtAX0YzryFyM4TxcgsLbMKYRfOmNjJPhDtsivoe8vbBsDcBDYtF5v5sN1pcjcuk6VwTZX4NuOx2c14QXFcZGRccSxvxpu+08v48mJ9SGydjmKX12l7z5FxsWk9CZX35VldenJjyc4RwcjYXyDj4cjMvpV20ltwbHzTiC4/2Vrt3qIuVm3Gs+h7DXZFd4Y/07hsJnnE3HZwa/Md45O9Qq64VscxE858flpRFXrZLBsZ+UzvDfa6mNnLYubDZWQi1OnFnwm8Vd6ji0HWNCDM0wZCZH1shCC/SwRBxCPSxC9BEISEjAxBEFEhI0MQRFTIyBAEERUyMgRBRIWMDEEQUSEjQxBEVMjIEAQRFTIyBEFEhYwMQRBRISNDEERUyMgQBBEVMjIEQUSFjAxBEFF5JyPT4Zj1RwnOXcMxgxbdEdnccwB17ghvuKZuTGLLz9IdkevlkeXzricC5K+aThddjWOeSX0M6cmQH2uvbm5Bd5TeCvI3Z/A6qPRs3pKgOsdms1l9gPe98E5GBvjyyMG5utjgGYAN9zj44xfrLaCrc2TpYTz428noj4Yx5rhuLT9DnWOTHlA2AGOyLNCUOOxSdwMJkr9iOh10xwybdIdD2aBhbNRl06A87JBuMnyw9vBGlIcJx8evP4yXPdgP/gPYp1i9D+qkPdepZBLXCV3+M0b7k8y8z21iy/sYTxh0ewu0Tx0Mlb9WOh0Mp93Jc2htxpPr7DTdBhW/9xS7KCj9RMpzX+b2yX73zrv1ZMKo8bQ7oGwaMF6gbYsZn0gYT63/+mWdJ5Ho8h6UHx9eYXAKCADJHj85po7jQuWvlc4JozcFXp2x305DT/ZnVH2apt4YiP8SH8TIpPheVGhbgfNpf+UG834oPz5Td7OjbybddUuofDgdjlmGLFuYq6mfpHdCVuCfGV8tKk2N7ttDn1eoczmXY43zujpHtnLOCehQ56O3yE2WLw7RVoevp7Wfe9Lf0V+Rc1+73vlbiV0vN8yfzMyndEcrPZsMWR44p2V5zbwojEh8ECOTYLvfIllrXXqPkK7G6CS2vAfl1+iry0GQ8mD58neoKKHywemsn3BoGjTNfO9jMHaDjyoP25P0SWR0u3pen5DtSjQY5+PQz/OkuxINOIqqQlVwMPjnnI5Zil3ZAKyfx/v6gkOa4enVlpWEhS9pXp+QpzscXr7KOJicB9ulozFOH/S5RTbMLTqmFQ3qfIP0UAIqPb23xqbcIfUlyKY7Ikt3KBuAFzKMgvdhzCyO3Ax7/PQ+LM/JGKg5CN9cQ/+cFZXlXoIJxh0nvseWd6JOwPfkeZLHUPlL0qn8E3ni6FGuXy6a79A8F3B7LkflYRKwyrs116HCsuuB5jXAOXcVGv4kraP3AjOomTkZ53xKL2+n36drZxh+fcj787q8BR+kJxNI73a2Oeywe4G2gtW4rXts+fciOJ3S97HLrenIuGL1FljR4mTN5XR/ntGAoZiMwZT3T3POSXn+5D+tIfQwR2USGv4Ar6y0mt5IL2eLkxAQZ3sKQHmGtL1IhrE9LenyNnxOI5P+I52sty3E+YzT6YTT6YyzaOVkZHPAD304EFv+vfgo6exRw8HXtkZdm5dqay+DL1Zl7HQ3wSPp6CR6ICz898WVfh/DfNzu/fcnuficRiZJpJP1ySROgu0/cmVqdIp+A/n3Iko6df/L10QZjQblboedfR18O6PW+ry+NPzYdOjqI/IsMyZ/05D0bE9oCw4GtT9JTvzei8H5nEZmjuQLZE/0dfh6zRJNPrRLHCq/wOp0TlFf2TVf/a7r0C2LaXBUhiN78zq/ue8fO/wQauRZinR3wMvXR/z82aJtW7RC9Mv/60n2J5yFQFsVKDiTxvTgGhLfnk9oZGrkm03AlvnY8n5mG2s/n6LvcQmTv146bZK+K7PYC6pzpGmK9EdIRX+BK3t+YsvHo877FaFKbs3YbhMkSTK/YrdAst1jfzpDiBYFk0Pip2tXgEA+oZFJIduipzL1y7pgD5BD+djyfobG6uiaDJOa38dJyjD566VzwvY7OJYrsErT4lI3gHEytcHzH2eC0RldotCeXWj4sVHDNw5NxZfh7C0m2Pez386P0i2xl5vehysvYfuWNrWlR2MZMLa8aEXBmHSArt3V8+1cap0shQbKXy2dDpZ+VjA8d6fJXoYVYiYfC0u6k/wtLWGHhm+vDQvh+dmCZylcuPLtiVPMpN+ZHn+cKo3Osr4hH8fItIXgnPeX2vPBxnuFue9D7R0AIFj/jlLcpFLGltf2W0wUrj8z8mZX4Mvkr5ZOB+Pvk6DpQgvfpc9JYzMZwmRM8KISVVX0e3fsxiW0BgYBptcNNpSL/UpQ+M5GLXEbGa28+/QMBtiR7zEtXBSVSstc+sd2whxhj3mqRDHoYWp8bs3HMTJaA3BedoMR8mvKVAVSSqjaiZwinvzCJrdWq+hQlc4l2BMof7V0umj1Cj2Gz3glWlcYjsZmM0kvZONxv9GaGw0ZF1XrNwIiJPwLjIwQrSi09Az59OS7LbhRdozLeuwNvxrlDYM1+QExE4wXYqZa3IyNEELYQyiCIIhr8QknfgmCuCfIyBAEERUyMgRBRIWMDEEQUSEjQxBEVMjIEAQRFTIyBEFEhYwMQRBRISNDEERUyMgQBBEVMjIEQUSFjAxBEFEhI0MQRFTIyBAEEZU7NzKmC1KXi8/7Rp2z67ru5zT5j0x3lPVj2dmirEuZroOMdHAL7trIdMcfgwvSoqrw89vySbH3yei2VDlYu6fT5D8/0ivArmzQgI06aHw66HDMc+S5fZ+4CPsUq3viXtxsXs6M21LvObtECN4T5DSGYy4nrnnVSYD2+3N6I0K5456MOs19rfOuj0aC/b+9g7XD09XdlhAjynMk/761vCZs8U/vbrZ0+qclrsFdGhk5zk4hneiV2NlzMnU+/l/ncpxtDcq7Ojc88m2yDHnt6Pz2Ycn3Oxy1OaBNlmOYBupq5Jn5zBVcEMrBmsNtSXe00r/JkOWe+QM7bW+S7XDM5P3JFFh37Oc0HM90nWiE6sGvU3N+ztDNG0j2Z+lQ7ST9ktT5BpvNDtKZi6Pu9VwvX66wchxdYWGN/u4Qu2tzD7SV9EwgD0yWJ7M7T343ZMaOrXkifSGKYjw4ejI0GQ6L5rKLrE69Hw5l5qJShzcPz/rDmh2Hl5ssdbvdB6irE+/Z5BR7x6HWg/uM8fT94SBrO30rZX2uNHTvBNNksEk+LtGDW6fhXgl0xnQs6Use7D16XHDUvavmSw+r17UW1iRPK/V3b9ylkZH4/cnongu4fRy71yeTx8/NjBuQ0Z2IPN1/xBPWhAUj4/QD1L+zMv0qjXaFdM1nrZZV6bIEK957Ipg8c+jqDXqY6HRw+eEzmtM8mSg9yHiXT/Gf0ds18+UpZ2d5hujvzvjQRsY2CkKMXwZbEUJ43lvh9sIVj0/hJjOVVf86zwcy4IrTdc/HellXuuU9VrS9sdEbWS/v+EI745rRQ2hZzz0zMV2VyMvjCsWZf8k18+Xq/ZnPLtf1PXGXczJvQU7yMTy4fK+mD3KidcmHc49yC+tC+aVexwt+5TlydWXanBPjqPr5gCVccW6/S1ek5W55z8d62S2kqDZX1Lu1/folkelonjF4e61/o7Rc6l5PD2oBwB2Wq0zcJIOP6KoowBm0bQTr/YVfL1/jhPRrW6OuzUt53tVdzK7X333xyYyMqpD3RoOmLFGqq5EVlRcV2vMJUxPToauPyLPMmBBM5Uy4yfaEtuBgqsH0k4HOShggKyv06De6+/OMpvfbLI3v6IO6+/tiNbwYerjWKmOC7X6P01lAtFXvlL7EbrJXxsU186XCalDudtjZ11t1fUd8MiNzr3BUcmiqXWec9vaSKoaNY+nugJevj/j5s5WrH0Kgkh+yCcn+hLMQaKsCxcJGv9Wy6qvcW5L2tQHYA1IA2H4HH5Z9O/x5bgD2iA+3VzLZYn+uwAGgeR16D7fFVTfG67w3C3W1/u6IT2ZkEsyMcD4Edb5D2QC8Ejif9thuEyRJ4jBGU5LtfhgSyC/0AU+eccCibPINjwzAy190qPG7BNjjtz4dKR6GZy1eG/0ZIulhusy/iq6Wu3e9X/s+L6vCv598LervjvhkRkaN0ceuvEH7igZ2g7gnVBdaDktW0XXoJpU0wf6n7PboY/ogWST49tjPvdTjfMz0mZyPGZ9JrqcH1bA9YS2RAK9lifLw29NTkUZy7XDsmvn69ijDUkNSkw6drawg/d0Pn87IJN8ewQCUv+zuY4fjrxIAw+Pd9+sdX7fuiF9yh5h+E8cfKdJ0OnEp50mMOwGyEjX38vxrnI+ZPntxGsVr6mGY8LTD6o744Zq7MFCT2CV2jk1r3fGX3HinhoKA1ruZcs18qbCmO747HLMUafpD23AYrr+7wV5uuh8uW8IW2vJfyGYp5zLyTDyuJcYp/qVQH5PNWcNGPM/Gs2EPidqgVYli2ExmxRsiK18Y95dM9oXMPZNcoofJfSHM5f4LNuOZ+2Tkxrhxw51cyrajHfZI9fG9eTOefb/HDEvpu4/bzlSw/u6DT2lkhBCirUbFD4qxN0OJ+zMyQgjRFmp3qGoUshH74mz1HcF9o/FtOAuRFVpjm5bBuh94hurBH1YrKn2fC+Oiav1lMkW+b6Sl333bOqM099XY6bpevhxheffvhOvvHtgIIYTduyEIgrgWn25OhiCI+4KMDEEQUSEjQxBEVMjIEAQRFTIyBEFEhYwMQRBRISNDEERUyMgQBBEVMjIEQUTl/yK/FkD2DwkWAAAAAElFTkSuQmCC;imageBorder=#FF3333;strokeWidth=2;" vertex="1" parent="1">
          <mxGeometry x="-464" y="647" width="287.9" height="101" as="geometry" />
        </mxCell>
        <mxCell id="bv5CLAyzpO2MDo3f1zgx-7" value="" style="shape=image;imageAspect=0;aspect=fixed;verticalLabelPosition=bottom;verticalAlign=top;image=data:image/png,iVBORw0KGgoAAAANSUhEUgAAAO4AAABNCAYAAAChZlhiAAAAAXNSR0IArs4c6QAAAARnQU1BAACxjwv8YQUAAAAJcEhZcwAAEnQAABJ0Ad5mH3gAAA1pSURBVHhe7Z09kpw6F4bf+dZCO3B5BWIFtJOJJnUmwu7kZg6dTUKHTebUkRPDCpoVuBxY7EVfAPpFovnr68H3PFVUeeAIhKRXfZBknScppQRBELvif/4JgiDePiRcgtghJFyC2CEkXILYISRcgtghJFyC2CEkXILYISRcgtghJFyC2CEkXILYIZ5wW1zSJzw9TTjSC1o3MdBekFo2ee0buLT1Bbn9vDTHpR7cVfNoe0WdmzTp5b59FKc8ctwpjvu0NfI0RZrmmPAahqXpPNpLOrluHWa2C2IC0kHIgkECEw5WSOEmlqJgrg2vPAvDwNY6WOHf+fH2HUJW3E0Xt52AKCTT9+IyXhrTqLj1Hk7ZCllwLjnnkvNhvcTTzcMu0zm3GdTFnMREkIFwq0I1AC45Z1bDY5Lp81zyovIaSEj0kcbqNGhIxrjkzK5cJh29PNpeCikqLtkg/29LuLJS92OecCrJx54TTTePZcKd0S6IyXjC9bnTIGysRsoskYQq2OmBLQP7l8EWzKPtZcWNvXeEhas6uEJWocuKrYUbZUY9rWCRcGe0C2I62wlXN34mC2GlG9SQ2wM7l20BaVf80fZu3nkl4gLX5uZ66JNBMyZcKy+sEFKKyvUKGB90CrZwVL6cvDiHeV4onaHrhFxvg0kW6JQWCXdyuzAMvR8W8PAM29hHrP166T04v2xm265kM+GaBtTZ+X9bltY9x1xcle7R9l2BF5XQFT1LuIP3s4g9T3rC5dxx7WP3DglwrXD99G4+4s8f0Z2D3w78v338MQbnCHSSm9r7LzXiicEvgzm2G7DRdFCN72X/T/6MDMDhPetPlPg+dRQxeYcP/rkxtrJPMpyyBIl/PkL2TwHOAICBF/8g8w1m0pQlGsZRVBWqqoAquSlll10FhKjA9RmOSggIcb2fr/aCL7reKkgpcZMSolhQd0Fmtos6x7Fs+j8Yiqp/N5WkOeOTPcq/xp4VqISElAKVKrzyaI14t7jowmEoKgkpJaQw9VPqF5hjuw3bCLf+Dp3t9wcAQPLxRWf652+r8Nrf+Kn/+IB3UbX8xO/2X7BfQnLC9SYh5Q3XU/QB0+EVxO2KU5Yhy074qoXjlV2QBImfhSRwLkRywlchIISAuBqZJ+9M93b/+SPMaRcAaq1ygFe3rjNNMly/GgE0v8QG9gzF1xOyBAASZFfT8ZVfAtOcANBlH0hOuHWeKqRVZg5zbBeyiXDtAnn52LeY5CNe+tJrvv0IFwYB9I16is4eQZIk3dH/3bbtZnU1r120+K17XIZe5x1BAayx9zv0A7Qj0PxCJ/UEpv9qcD48Ic0vkXUAc2y3YQPhWu4QgG+vOfI8R56/4ps62XzDD/UOjrs69qvXF+6j7f/r9Isz1OKIw+GAw9Gq0MXMbBcQ+KW83kl1s8a+xDFNkerjE876mmkz2dVyuwE05Rnn4wFPTylyb2HOHNstWC9cyx0CGjRlibI/Gl0YDb6ZGorjuLkTeLT9306d4+lwRNk0ABgYL1BVFSrLVV/Mlu3iETQNGusIk+F6kxCVGtNQNCjPB29V3Rzb9awWbmv8j1GMW2S5JWhgfYIA4hd0EbL3/afCo+3/q3gDKuKG2/WELMuQWd+4S1nXLsY8JcUae45KudKD4wZ/2CLJ1JiGQGWpsjm/DpaxzrFdw0rhtvjxzRrVE34hCOjOW7tFCT6qjxxvtM0ebGAvH/vvrkfbL6FFfcmR55dVa3//LHNdzTksaxf2d6LT4aJGrtebq8GjNfZThA6gbb1v/gTZ9avJu80c2y3w54dc7szj2vOUgTkzGZsTDS1JdObXxuZfH2AvpRRVJav+sBdwMF7o86F53th7S+nnY2Qe18tMbN41dn646ERIYV0Op7PTWOUhKsnt9488H7yQwn6IzdJ24cyFsm5uXXj1Yb/3GnvGZSWEVMtdzXmVX6/t6/IJvdsc221YJdzY0kKHYKF4ab3Db8iPtw+tp/UP07g3X4CxWrih972/AGOYprexVv84z/E6xFAH2JktbxejCyTYsKzn2sfeWR12dh9luwUrhOv38s5Fw0jjFVXh9O5gXBYj68MeZz9PuFKo+44slZPj7761cLuli/Z/Crkv3O6avWqrfx8r3wN7p0xDwn1Au7i7hHGtfXxpYmfripJF2tEc27U8SUkhSAhib6wcnCII4k9AwiWIHULCJYgdQsIliB1CwiWIHULCJYgdQsIliB1CwiWIHULCJYgdQsIliB1CwiWIHULCJYgdQsIliB1CwiWIHTJDuBNDcIbCbwIm1GLsuqKdEBrTC9s4dvghHds6R+rcP0Xu338Spjz8Z/iosJ2LNwyr82B6HfbyXgZ6lP1Ec7fOpyci/gVmCBd498LBuTqY3nSa6XMc/OWdl6oXy+FsNmqLUed4OpxRNgBj3TPQlDgfD4PG9oExsJEjRJ0/4XAs0TSszzMDaxqUx8OChmn2thrfpV5tU2rtLbwV/SZK7L1/YSPaH9BbR5XfN93sbN+0uOTdnmMLu+L1+P+zfjpqd4zQLggdoR0B4nvvmN02nF0T9E4J/g4cY/T3CgX2Gjzf7NgQ3a0hxpS8KZvBc2fQ593fjWIuaieMqe+p7Xn3/Knp/n5UWx2p9wcz6xd3HjVej2eUTQPGCwgrjkoQtQ8vr+BEa0hO+MwRjjUTob18Qent5Ki2Cx3u7pjg1D1gEBLjLnpX/nje2h/f0ASf+9ZROzVyPF+fwe96FsS/yQOFe8BzUUEIidv1dLfRamE5sSQ6sudOWNMaTo3Xc9fgPlsb5NrxcKbR4pKmSNN8xEU07nJY9Krxh93k9uJ9bz+lSPN6uvsV+fYFWtS5iU7wlOYYmNxDucn8GZnak/iOuxwcP7jE32cT+9D4RLRczHiD82Vk27c1Ll7Z2Y/o0h/7zd5LHHs751ledIjZ9ToF/yd4OvddZYc7LqPaOTHojt1Ja6Pcu4FbGXVrlavsvcfIZm4OY3kbuabet9tMrJKV/VnhF0LMVQ6etzZrY1xyrramZXqLWv/2IXy32v/bx2xIx/pnWjFoA4kW2zMmeVHIworpO61c1KVAO1N1zXn/idWXm/7Mszfe68qza0tMsj7vekM43c66DeuqqpCF2oky0A6W8kaEGxGPvjyW1kbdxxdnT6V2NDQFrgt5kEDtLxzJkyaed93YBjcPfINLGb9XrCGGzse+5a1dFQfZGRAoR5U+lHhup7jU3n+nmH2oXPSlQBlYnTR3dmSMjX/Ev3GD99fnh21kKQ90lf8A9WsXvKmPxTrg8Nx/k5pYNg0Axl/wPPDQu1gwoZAULspdHsbBEX2oAP7s5ybDVUrIm/8JoXbb93fmn46K1sA/e/fWYwUTcNzkHvU9H3CX9Xf8IFZwglOgDJfaD95Jj08My34RvMK1i73Z40bFWEN2Hb7XGv4i4apYOAzFP75Q0M39Ho44N10AZBUOQ1QFUJ5xPKTzvwN7VMxXN2ykmgbiGOh2BBP4eQkqlKQXdrJn6r21UJyMq0Y8HIjrOqjwd3yIpfahd8LhfaDs/xx6POY4/r2+lr9HuPrX9nOgV2tx+dTNI6sAyIokO+EmCjA0OH9aOC+nQnvq2Kr2KHnk1x8t2vqCPE2dAZeDife4gjWxgEzcn/KLHYoyxac+b+4goR13dgqPtv/DZFeIgoOhQXk+4tAPTm0t4jci3A1dxODPmwpwFfn1U26gLbxZZOg6WvNrNJ6fGnl6wOF4xs8PL/j8uY8KLyWqqe7so7AXXXihKHWXEnCXCUNyuuLWe3MF7z6jyvMRh3urBmfwRoRr3LjgtIoKj/nhXXhaqb2g85ILhLxkzd3QmhOjuAVwp6zG3eQ6P6JsAF51U2VZ5kaFX8/y9zDfn+Zzwj5E4bvLdhS8KTza/u2QZCecrjcTnbA543WjHu/NCFfNszaBn9zxXy+gfu3d4MHghYcTAd1G/SKvcDGzbpECyu+oVQDtoJusXL+wqNex1nMZn3eGVU+2u9x1uuFnhtZHb2mvOvU3s8ClbdEO2tiKRT4x/GHm6Ww5HSSd+zlD6dGpg55713t0hD3uB4MSzjX7fMFYFwzKOjuGmZsdm/OMTGHIkSkbPc84mGMYTnusmQ66W0cyPBUSTRewlVvaR8oyYm+H05xUvtJM6bmXAtNlo+fNfUJTVEt4rHBFoSfXTXxaM+E+iKhmL3pw0vgFZ5heINbCBD2Pa0W38wU6dQGGjZUmVHkKs5jAX3wRWyRhyprZk/0h4a5YgDG1LENzlc4CCW9BReh+q+zvLcAIlEFnGymD2cK1fgj6+/t10uWzj7es21m8TczlscJ1GnLgGPSgvdi1wFTjHlj1RHroKEJWVoXbBTx8wtQFGDbmP0qEGoGNG96yC6AtRhqK1ItHrIYaFK7s3tOOG9uHkIzeW0qnsYevG2ILSwbhK0frbol9oO5i9n6Abl7Ey2CBcKUUZkWUVwfD/1zD9PO3gsJsEsQOeTODUwRBTIeESxA7hIRLEDuEhEsQO4SESxA7hIRLEDuEhEsQO4SESxA7hIRLEDuEhEsQO4SESxA7hIRLEDuEhEsQO4SESxA7hIRLEDuEhEsQO4SESxA7hIRLEDvk/9eIIOogRDj9AAAAAElFTkSuQmCC;fontColor=#ee1111;imageBorder=#FF3333;strokeWidth=2;" vertex="1" parent="1">
          <mxGeometry x="-531" y="194" width="238" height="77" as="geometry" />
        </mxCell>
      </root>
    </mxGraphModel>
  </diagram>
</mxfile>
